REM MD5 cbfabeb13f0ca31155feb115b6042fcc
FILE "South Park - Chef's Luv Shack (Europe).bin" BINARY
  TRACK 01 MODE2/2352
    INDEX 01 00:00:00
  TRACK 02 AUDIO
    INDEX 00 39:35:51
    INDEX 01 39:37:51
  TRACK 03 AUDIO
    INDEX 00 42:36:01
    INDEX 01 42:38:01
REM LEADOUT 45:38:01
